<svg xmlns="http://www.w3.org/2000/svg" xmlns:xlink="http://www.w3.org/1999/xlink" width="55.419" height="53.9" viewBox="0 0 55.419 53.9"><defs><style>.a{fill:rgba(0,0,0,0.87);}.b{filter:url(#a);}</style><filter id="a" x="0" y="0" width="55.419" height="53.9" filterUnits="userSpaceOnUse"><feOffset dx="-6" dy="3" input="SourceAlpha"/><feGaussianBlur stdDeviation="1.5" result="b"/><feFlood flood-opacity="0.161"/><feComposite operator="in" in2="b"/><feComposite in="SourceGraphic"/></filter></defs><g class="b" transform="matrix(1, 0, 0, 1, 0, 0)"><path class="a" d="M718.573,280.554H686.24a6.291,6.291,0,0,0-6.293,6.29v32.32a6.292,6.292,0,0,0,6.293,6.29h32.333a6.291,6.291,0,0,0,6.292-6.29v-32.32A6.291,6.291,0,0,0,718.573,280.554ZM698.13,299.369l2.387,2.386,6.167-6.164,2.78,2.778-8.947,8.943-5.167-5.165Zm19.214,3.6a14.937,14.937,0,0,1-29.875,0V288.1h7.83v4.671h-3.135v10.2a10.242,10.242,0,0,0,20.484,0v-10.2h-3.134V288.1h7.83Z" transform="translate(-669.45 -279.05)"/></g></svg>